<mxfile host="www.draw.io" modified="2019-12-26T10:51:06.444Z" agent="Mozilla/5.0 (Windows NT 10.0; Win64; x64) AppleWebKit/537.36 (KHTML, like Gecko) Chrome/78.0.3904.108 Safari/537.36" etag="LnMrzYtzDex1Qvnc5DAu" version="12.4.3" type="github" pages="1">
  <diagram id="vbzi2wXA6_q5A3Zr_o0p" name="Page-1">
    <mxGraphModel dx="1102" dy="533" grid="1" gridSize="10" guides="1" tooltips="1" connect="1" arrows="1" fold="1" page="1" pageScale="1" pageWidth="827" pageHeight="1169" math="0" shadow="0">
      <root>
        <mxCell id="0"/>
        <mxCell id="1" parent="0"/>
        <mxCell id="9SRFmeWxy3orUzEU3veg-13" value="" style="rounded=0;whiteSpace=wrap;html=1;strokeWidth=2;glass=0;comic=0;shadow=0;" parent="1" vertex="1">
          <mxGeometry x="100" y="140" width="480" height="300" as="geometry"/>
        </mxCell>
        <mxCell id="9SRFmeWxy3orUzEU3veg-2" value="&lt;font style=&quot;font-size: 14px&quot;&gt;pipeline&lt;br&gt;(8 lcore)&lt;/font&gt;" style="rounded=0;whiteSpace=wrap;html=1;strokeWidth=2;" parent="1" vertex="1">
          <mxGeometry x="130" y="190" width="120" height="60" as="geometry"/>
        </mxCell>
        <mxCell id="9SRFmeWxy3orUzEU3veg-3" value="&lt;font style=&quot;font-size: 14px&quot;&gt;key-value&lt;br&gt;hash&lt;/font&gt;" style="rounded=0;whiteSpace=wrap;html=1;strokeWidth=2;" parent="1" vertex="1">
          <mxGeometry x="280" y="190" width="120" height="60" as="geometry"/>
        </mxCell>
        <mxCell id="9SRFmeWxy3orUzEU3veg-4" value="&lt;font style=&quot;font-size: 14px&quot;&gt;data encap&lt;/font&gt;" style="rounded=0;whiteSpace=wrap;html=1;strokeWidth=2;" parent="1" vertex="1">
          <mxGeometry x="430" y="190" width="120" height="60" as="geometry"/>
        </mxCell>
        <mxCell id="9SRFmeWxy3orUzEU3veg-5" value="&lt;font style=&quot;font-size: 14px&quot;&gt;data decap&lt;/font&gt;" style="rounded=0;whiteSpace=wrap;html=1;strokeWidth=2;" parent="1" vertex="1">
          <mxGeometry x="430" y="270" width="120" height="60" as="geometry"/>
        </mxCell>
        <mxCell id="9SRFmeWxy3orUzEU3veg-6" value="&lt;font style=&quot;font-size: 14px&quot;&gt;CuckooHash&lt;/font&gt;" style="rounded=0;whiteSpace=wrap;html=1;strokeWidth=2;" parent="1" vertex="1">
          <mxGeometry x="280" y="270" width="120" height="60" as="geometry"/>
        </mxCell>
        <mxCell id="9SRFmeWxy3orUzEU3veg-7" value="&lt;font style=&quot;font-size: 14px&quot;&gt;Multi-queue&lt;br&gt;RSS&lt;br&gt;&lt;/font&gt;" style="rounded=0;whiteSpace=wrap;html=1;strokeWidth=2;" parent="1" vertex="1">
          <mxGeometry x="130" y="270" width="120" height="60" as="geometry"/>
        </mxCell>
        <mxCell id="9SRFmeWxy3orUzEU3veg-8" value="&lt;font style=&quot;font-size: 14px&quot;&gt;checksum offload&lt;br&gt;&lt;/font&gt;" style="rounded=0;whiteSpace=wrap;html=1;strokeWidth=2;" parent="1" vertex="1">
          <mxGeometry x="130" y="350" width="120" height="60" as="geometry"/>
        </mxCell>
        <mxCell id="9SRFmeWxy3orUzEU3veg-9" value="&lt;font style=&quot;font-size: 14px&quot;&gt;Lite IP-Stack&lt;br&gt;&lt;/font&gt;" style="rounded=0;whiteSpace=wrap;html=1;strokeWidth=2;" parent="1" vertex="1">
          <mxGeometry x="430" y="350" width="120" height="60" as="geometry"/>
        </mxCell>
        <mxCell id="9SRFmeWxy3orUzEU3veg-10" value="&lt;font style=&quot;font-size: 14px&quot;&gt;zero copy&lt;br&gt;&lt;/font&gt;" style="rounded=0;whiteSpace=wrap;html=1;strokeWidth=2;" parent="1" vertex="1">
          <mxGeometry x="280" y="350" width="120" height="60" as="geometry"/>
        </mxCell>
        <mxCell id="9SRFmeWxy3orUzEU3veg-14" value="&lt;b&gt;DPDK Cache&lt;/b&gt;" style="text;html=1;strokeColor=none;fillColor=none;align=center;verticalAlign=middle;whiteSpace=wrap;rounded=0;" parent="1" vertex="1">
          <mxGeometry x="110" y="150" width="90" height="20" as="geometry"/>
        </mxCell>
        <mxCell id="9SRFmeWxy3orUzEU3veg-15" value="" style="rounded=0;whiteSpace=wrap;html=1;strokeWidth=2;" parent="1" vertex="1">
          <mxGeometry x="100" y="470" width="480" height="220" as="geometry"/>
        </mxCell>
        <mxCell id="9SRFmeWxy3orUzEU3veg-16" value="&lt;font style=&quot;font-size: 14px&quot;&gt;pipeline&lt;br&gt;(8 lcore)&lt;/font&gt;" style="rounded=0;whiteSpace=wrap;html=1;strokeWidth=2;" parent="1" vertex="1">
          <mxGeometry x="130" y="520" width="120" height="60" as="geometry"/>
        </mxCell>
        <mxCell id="9SRFmeWxy3orUzEU3veg-17" value="&lt;span style=&quot;font-size: 14px&quot;&gt;send/recv&lt;br&gt;&lt;/span&gt;continuously" style="rounded=0;whiteSpace=wrap;html=1;strokeWidth=2;" parent="1" vertex="1">
          <mxGeometry x="280" y="520" width="120" height="60" as="geometry"/>
        </mxCell>
        <mxCell id="9SRFmeWxy3orUzEU3veg-18" value="&lt;font style=&quot;font-size: 14px&quot;&gt;user-defined&lt;br&gt;pkt header&lt;br&gt;&lt;/font&gt;" style="rounded=0;whiteSpace=wrap;html=1;strokeWidth=2;" parent="1" vertex="1">
          <mxGeometry x="430" y="520" width="120" height="60" as="geometry"/>
        </mxCell>
        <mxCell id="9SRFmeWxy3orUzEU3veg-19" value="&lt;span style=&quot;color: rgb(51 , 51 , 51) ; font-family: &amp;#34;helvetica neue&amp;#34; , &amp;#34;tahoma&amp;#34; , &amp;#34;arial&amp;#34; , , &amp;#34;hiragino sans gb&amp;#34; , &amp;#34;microsoft yahei&amp;#34; , sans-serif ; font-size: 14px ; background-color: rgb(255 , 255 , 255)&quot;&gt;statistics&lt;/span&gt;" style="rounded=0;whiteSpace=wrap;html=1;strokeWidth=2;" parent="1" vertex="1">
          <mxGeometry x="430" y="600" width="120" height="60" as="geometry"/>
        </mxCell>
        <mxCell id="9SRFmeWxy3orUzEU3veg-20" value="&lt;font style=&quot;font-size: 14px&quot;&gt;verify pkt&lt;br&gt;checksum&lt;br&gt;&lt;/font&gt;" style="rounded=0;whiteSpace=wrap;html=1;strokeWidth=2;" parent="1" vertex="1">
          <mxGeometry x="280" y="600" width="120" height="60" as="geometry"/>
        </mxCell>
        <mxCell id="9SRFmeWxy3orUzEU3veg-21" value="&lt;font&gt;&lt;span style=&quot;font-size: 14px&quot;&gt;verify pkt &lt;br&gt;integrity&lt;/span&gt;&lt;br&gt;&lt;/font&gt;" style="rounded=0;whiteSpace=wrap;html=1;strokeWidth=2;" parent="1" vertex="1">
          <mxGeometry x="130" y="600" width="120" height="60" as="geometry"/>
        </mxCell>
        <mxCell id="9SRFmeWxy3orUzEU3veg-25" value="&lt;b&gt;DPDK SimPktgen&lt;/b&gt;" style="text;html=1;strokeColor=none;fillColor=none;align=center;verticalAlign=middle;whiteSpace=wrap;rounded=0;" parent="1" vertex="1">
          <mxGeometry x="110" y="480" width="90" height="20" as="geometry"/>
        </mxCell>
        <mxCell id="9SRFmeWxy3orUzEU3veg-26" value="&lt;b&gt;......&lt;/b&gt;" style="text;html=1;strokeColor=none;fillColor=none;align=center;verticalAlign=middle;whiteSpace=wrap;rounded=0;" parent="1" vertex="1">
          <mxGeometry x="320" y="412" width="40" height="20" as="geometry"/>
        </mxCell>
        <mxCell id="9SRFmeWxy3orUzEU3veg-27" value="&lt;b&gt;......&lt;/b&gt;" style="text;html=1;strokeColor=none;fillColor=none;align=center;verticalAlign=middle;whiteSpace=wrap;rounded=0;" parent="1" vertex="1">
          <mxGeometry x="320" y="660" width="40" height="20" as="geometry"/>
        </mxCell>
      </root>
    </mxGraphModel>
  </diagram>
</mxfile>
